<?xml version="1.0" encoding="UTF-8" standalone="no"?>
<svg
   width="100%"
   height="100%"
   viewBox="0 0 340 286"
   version="1.1"
   xml:space="preserve"
   style="fill-rule:evenodd;clip-rule:evenodd;stroke-linecap:round;stroke-linejoin:round;stroke-miterlimit:1.5;"
   id="svg1241"
   sodipodi:docname="Lyvam_NewLogo.svg"
   inkscape:version="1.2.2 (b0a8486541, 2022-12-01)"
   xmlns:inkscape="http://www.inkscape.org/namespaces/inkscape"
   xmlns:sodipodi="http://sodipodi.sourceforge.net/DTD/sodipodi-0.dtd"
   xmlns="http://www.w3.org/2000/svg"
   xmlns:svg="http://www.w3.org/2000/svg"><defs
   id="defs1245" /><sodipodi:namedview
   id="namedview1243"
   pagecolor="#ffffff"
   bordercolor="#000000"
   borderopacity="0.25"
   inkscape:showpageshadow="2"
   inkscape:pageopacity="0.0"
   inkscape:pagecheckerboard="0"
   inkscape:deskcolor="#d1d1d1"
   showgrid="false"
   inkscape:zoom="2.8273021"
   inkscape:cx="130.33627"
   inkscape:cy="153.14954"
   inkscape:window-width="1852"
   inkscape:window-height="1045"
   inkscape:window-x="68"
   inkscape:window-y="1"
   inkscape:window-maximized="1"
   inkscape:current-layer="svg1241" />
    
<path
   style="fill-rule:evenodd;clip-rule:evenodd;stroke-linecap:round;stroke-linejoin:round;stroke-miterlimit:1.5;fill:#acb7f2;stroke:none;stroke-width:24.5669;fill-opacity:1"
   d="m 55.543826,162.01972 -12.286923,27.08802 -8.773138,23.85865 -6.534338,23.17771 1.347774,11.72348 7.661998,13.9682 11.967621,7.11445 15.587464,-1.21756 15.182338,-13.11283 8.490902,-13.03883 8.962392,-10.86616 11.545254,-17.30282 20.38268,10.2607 11.69215,0.24597 22.42727,-9.0269 25.04177,7.66317 16.00124,0.3307 11.88449,-7.36975 6.64354,-3.80539 15.60622,26.95066 9.33784,15.00591 14.81663,14.1349 14.89269,1.52897 13.45643,-6.92771 7.05777,-11.25743 2.14375,-15.63691 -2.81126,-19.64951 -8.77334,-19.524 -8.45109,-28.74158 -17.40641,-26.19762 6.08798,-26.75461 -4.9744,-30.855309 -13.81196,-14.149618 -16.92037,-7.720778 -13.71609,-2.571242 -15.06242,-14.04781 -21.04788,-7.728051 -23.22048,0.435897 -27.26538,12.761659 -22.42105,-1.353392 -17.484806,8.104623 -16.295967,22.858983 -16.480664,6.180983 -15.498118,10.168909 -9.343482,20.714486 2.387964,17.68268 7.667632,15.62372 z"
   id="path1772" /><path
   style="clip-rule:evenodd;fill:#bf9006;fill-opacity:1;fill-rule:evenodd;stroke:none;stroke-width:23.567;stroke-linecap:round;stroke-linejoin:round;stroke-miterlimit:1.5;stroke-opacity:1;stroke-dasharray:none"
   d="m 117.67094,127.14161 -10.93916,5.23579 -0.7249,16.52329 11.66408,6.20494 10.74855,-5.00385 3.27247,-8.97817 -6.03124,-11.62626 z"
   id="path3852" /><path
   style="clip-rule:evenodd;fill:#bf9006;fill-opacity:1;fill-rule:evenodd;stroke:none;stroke-width:15.0181;stroke-linecap:round;stroke-linejoin:round;stroke-miterlimit:1.5;stroke-opacity:1"
   d="m 201.68123,109.15357 -6.53183,3.27689 -0.43284,10.34129 6.96469,3.88343 6.41802,-3.13172 1.95401,-5.61909 -3.60129,-7.27643 z"
   id="path3852-3" /><path
   style="clip-rule:evenodd;fill:#bf9006;fill-opacity:1;fill-rule:evenodd;stroke:none;stroke-width:15.0181;stroke-linecap:round;stroke-linejoin:round;stroke-miterlimit:1.5;stroke-opacity:1"
   d="m 225.41903,131.53297 -6.53183,3.27689 -0.43284,10.34129 6.96469,3.88343 6.41802,-3.13172 1.95401,-5.61909 -3.60129,-7.27643 z"
   id="path3852-3-6" /><path
   style="clip-rule:evenodd;fill:#bf9006;fill-opacity:1;fill-rule:evenodd;stroke:none;stroke-width:15.0181;stroke-linecap:round;stroke-linejoin:round;stroke-miterlimit:1.5;stroke-opacity:1"
   d="m 201.04954,131.46831 -6.53183,3.27689 -0.43284,10.34129 6.96469,3.88343 6.41802,-3.13172 1.95401,-5.61909 -3.60129,-7.27643 z"
   id="path3852-3-6-7" /><path
   style="clip-rule:evenodd;fill:#bf9006;fill-opacity:1;fill-rule:evenodd;stroke:none;stroke-width:15.0181;stroke-linecap:round;stroke-linejoin:round;stroke-miterlimit:1.5;stroke-opacity:1"
   d="m 178.1041,130.66643 -6.53183,3.27689 -0.43284,10.34129 6.96469,3.88343 6.41802,-3.13172 1.95401,-5.61909 -3.60129,-7.27643 z"
   id="path3852-3-6-7-5" /><path
   style="clip-rule:evenodd;fill:#bf9006;fill-opacity:1;fill-rule:evenodd;stroke:none;stroke-width:15.0181;stroke-linecap:round;stroke-linejoin:round;stroke-miterlimit:1.5;stroke-opacity:1"
   d="m 200.74676,155.00346 -6.53183,3.27689 -0.43284,10.34129 6.96469,3.88343 6.41802,-3.13172 1.95401,-5.61909 -3.60129,-7.27643 z"
   id="path3852-3-6-7-5-3" /><g
   transform="translate(-837.241,-326.4)"
   id="g1239"
   style="clip-rule:evenodd;fill-rule:evenodd;stroke-linecap:round;stroke-linejoin:round;stroke-miterlimit:1.5"
   sodipodi:insensitive="true">
        <g
   id="Artboard1"
   transform="matrix(0.926578,0,0,1,163.087,-55.2363)">
            <rect
   x="727.57397"
   y="381.63699"
   width="366.664"
   height="285.79999"
   style="fill:none"
   id="rect1164" />
            <g
   transform="matrix(1.0681,0.143319,-0.154675,0.989677,385.51,-73.6793)"
   id="g1236">
                <g
   id="g1208">
                    <g
   id="g1186">
                        <g
   transform="matrix(0.724987,0,0,0.655705,109.004,155.205)"
   id="g1168">
                            <path
   d="m 493.499,613.028 c -28.099,-3.634 -49.935,-30.122 -49.935,-62.214 0,-34.571 25.34,-62.638 56.552,-62.638 15.602,0 29.737,7.013 39.973,18.345"
   style="fill:none;stroke:#4158d9;stroke-width:18.81px"
   id="path1166" />
                        </g>
                        <g
   transform="matrix(0.724987,0,0,0.655705,144.41,116.45)"
   id="g1172">
                            <path
   d="m 443.809,544.944 c 2.676,-31.823 26.882,-56.768 56.307,-56.768 15.221,0 29.045,6.674 39.215,17.522"
   style="fill:none;stroke:#4158d9;stroke-width:18.81px"
   id="path1170" />
                        </g>
                        <g
   transform="matrix(0.677338,0.682115,-0.732153,0.727025,620.381,-266.604)"
   id="g1176">
                            <path
   d="m 443.564,550.814 c 0,-34.571 25.34,-62.638 56.552,-62.638 1.438,0 2.863,0.059 4.274,0.176"
   style="fill:none;stroke:#4158d9;stroke-width:13.04px"
   id="path1174" />
                        </g>
                        <g
   transform="matrix(0.548292,0.596278,-0.481433,0.442689,612.782,-64.0072)"
   id="g1180">
                            <path
   d="m 453.434,586.285 c -7.431,-9.764 -11.499,-22.894 -11.499,-38.553 0,-34.571 26.969,-59.556 58.181,-59.556 22.806,0 54.621,23.612 63.058,75.398"
   style="fill:none;stroke:#4158d9;stroke-width:17.66px"
   id="path1178" />
                        </g>
                        <g
   transform="matrix(0.558792,0,0,0.443977,272.385,227.721)"
   id="g1184">
                            <path
   d="m 443.564,550.814 c 0,-34.571 25.34,-62.638 56.552,-62.638"
   style="fill:none;stroke:#4158d9;stroke-width:25.76px"
   id="path1182" />
                        </g>
                    </g>
                    <g
   id="g1206">
                        <g
   transform="matrix(-0.717455,0.104234,-0.094273,-0.648893,1051.35,839.614)"
   id="g1190">
                            <path
   d="M 469.528,587.26 C 447.353,550.472 427.369,484.438 420.92,461.318 c -16.957,-60.792 40.087,-97.958 69.266,-45.269 7.03,12.694 26.351,46.506 43.845,78.274 2.223,4.037 4.95,8.9 6.675,11.839"
   style="fill:none;stroke:#4158d9;stroke-width:18.81px"
   id="path1188" />
                        </g>
                        <g
   transform="matrix(-0.717455,0.104234,-0.094273,-0.648893,873.617,866.319)"
   id="g1194">
                            <path
   d="m 507.29,557.286 c 17.395,-36.846 27.882,-74.809 33.558,-91.669 20.07,-59.621 -34.96,-100.33 -66.814,-49.57 -8.072,12.862 -37.45,65.509 -54.033,91.759"
   style="mix-blend-mode:normal;fill:none;fill-opacity:1;fill-rule:evenodd;stroke:#4158d9;stroke-width:18.81px"
   id="path1192" />
                        </g>
                        <g
   transform="matrix(1.02387,0,0,1,-14.8593,0)"
   id="g1204">
                            <g
   transform="matrix(-0.528878,-0.626068,0.592315,-0.48554,532.02,1132.65)"
   id="g1198">
                                <path
   d="m 443.564,550.814 c 0,-13.021 3.595,-25.119 9.744,-35.143 5.796,-9.448 13.862,-17.052 23.326,-21.849"
   style="fill:none;stroke:#4158d9;stroke-width:16.51px"
   id="path1196" />
                            </g>
                            <g
   transform="matrix(-0.766487,0.187504,-0.202356,-0.815805,1034.14,911.105)"
   id="g1202">
                                <path
   d="m 471.702,496.655 c 8.351,-5.39 18.06,-8.479 28.414,-8.479 15.624,0 27.935,4.525 38.174,15.885"
   style="fill:none;stroke:#4158d9;stroke-width:15.66px"
   id="path1200" />
                            </g>
                        </g>
                    </g>
                </g>
                <g
   transform="rotate(-8.2399446,705.95201,3274.1126)"
   id="g1212">
                    <ellipse
   cx="911.14899"
   cy="529.06403"
   rx="14.021"
   ry="13.982"
   style="fill:none;stroke:#f2d023;stroke-width:9.99999113;stroke-dasharray:none"
   id="ellipse1210" />
                </g>
                <g
   transform="rotate(-0.98470541,937.5235,1171.827)"
   id="g1234"
   style="fill:#f2d023;fill-opacity:1;stroke:#f2d023;stroke-opacity:1">
                    <g
   transform="matrix(1.16179,-0.147906,0.147906,1.16179,-556.667,48.2548)"
   id="g1216"
   style="fill:#f2d023;fill-opacity:1;stroke:#f2d023;stroke-opacity:1">
                        <path
   d="m 958.086,507.826 c 4.712,0 8.538,3.838 8.538,8.566 0,4.727 -3.826,8.566 -8.538,8.566 -4.713,0 -8.539,-3.839 -8.539,-8.566 0,-4.728 3.826,-8.566 8.539,-8.566 z m 0.986,11.671 0.075,0.783 c 0.022,0.251 0.098,0.467 0.229,0.651 0.131,0.183 0.306,0.338 0.525,0.463 0.22,0.125 0.483,0.218 0.788,0.279 0.306,0.061 0.642,0.092 1.009,0.092 1.162,0 2.052,-0.326 2.669,-0.976 0,-0.183 -0.016,-0.467 -0.046,-0.85 -0.031,-0.384 -0.07,-0.825 -0.117,-1.322 -0.047,-0.498 -0.101,-1.03 -0.163,-1.597 l -0.183,-1.68 c -0.061,-0.553 -0.121,-1.077 -0.179,-1.572 -0.059,-0.495 -0.107,-0.917 -0.146,-1.267 -0.039,-0.334 -0.117,-0.615 -0.234,-0.842 -0.116,-0.228 -0.276,-0.413 -0.479,-0.555 -0.203,-0.142 -0.453,-0.245 -0.751,-0.308 -0.297,-0.064 -0.643,-0.096 -1.038,-0.096 -0.222,0 -0.439,0.014 -0.65,0.041 -0.211,0.028 -0.407,0.064 -0.588,0.109 -0.181,0.044 -0.345,0.094 -0.492,0.15 -0.147,0.055 -0.268,0.108 -0.363,0.158 l -0.792,3.294 c -0.222,-0.011 -0.333,-0.111 -0.333,-0.3 0,-0.039 0.002,-0.078 0.008,-0.117 0.006,-0.039 0.014,-0.081 0.025,-0.125 l 0.292,-1.226 -0.459,-1.534 c -0.239,-0.134 -0.54,-0.242 -0.904,-0.325 -0.365,-0.084 -0.736,-0.125 -1.114,-0.125 -0.211,0 -0.43,0.012 -0.658,0.037 -0.228,0.025 -0.455,0.067 -0.68,0.125 -0.225,0.059 -0.44,0.138 -0.646,0.238 -0.206,0.1 -0.389,0.222 -0.55,0.367 -0.028,0.167 -0.06,0.397 -0.096,0.692 l -0.121,1.009 c -0.045,0.378 -0.089,0.786 -0.134,1.226 l -0.133,1.329 c -0.045,0.448 -0.086,0.891 -0.125,1.33 -0.039,0.44 -0.074,0.848 -0.104,1.226 -0.031,0.378 -0.055,0.716 -0.071,1.013 -0.017,0.298 -0.025,0.533 -0.025,0.705 0,0.328 0.093,0.603 0.279,0.825 0.186,0.223 0.421,0.405 0.705,0.547 0.283,0.141 0.594,0.243 0.934,0.304 0.339,0.061 0.664,0.092 0.975,0.092 0.328,0 0.619,-0.014 0.871,-0.042 0.253,-0.028 0.48,-0.068 0.68,-0.121 0.2,-0.053 0.379,-0.118 0.538,-0.196 0.158,-0.078 0.31,-0.164 0.454,-0.258 l 0.067,-1.576 c -0.117,-0.011 -0.247,-0.042 -0.392,-0.092 -0.144,-0.05 -0.29,-0.124 -0.438,-0.221 -0.147,-0.097 -0.291,-0.218 -0.433,-0.363 -0.142,-0.144 -0.274,-0.317 -0.396,-0.517 -0.067,-0.105 -0.1,-0.205 -0.1,-0.3 0,-0.072 0.022,-0.122 0.066,-0.15 0.045,-0.028 0.098,-0.042 0.159,-0.042 h 0.05 c 0.133,0.245 0.272,0.451 0.417,0.617 0.144,0.167 0.297,0.301 0.458,0.401 0.162,0.1 0.335,0.172 0.521,0.216 0.187,0.045 0.388,0.067 0.605,0.067 0.867,0 1.498,-0.408 1.893,-1.226 0.011,0 0.021,-10e-4 0.029,-0.004 0.008,-0.003 0.018,-0.004 0.029,-0.004 0.145,0 0.217,0.072 0.217,0.217 0,0.105 -0.047,0.231 -0.142,0.375 -0.211,0.311 -0.431,0.536 -0.659,0.675 -0.227,0.139 -0.439,0.231 -0.633,0.276 z"
   style="fill:#f2d023;fill-opacity:1;stroke:#f2d023;stroke-width:1.28px;stroke-opacity:1"
   id="path1214"
   inkscape:label="path1214" />
                    </g>
                    <g
   transform="matrix(1.16179,-0.147906,0.147906,1.16179,-576.884,73.5385)"
   id="g1220"
   style="fill:#f2d023;fill-opacity:1;stroke:#f2d023;stroke-opacity:1">
                        <path
   d="m 958.086,507.826 c 4.712,0 8.538,3.838 8.538,8.566 0,4.727 -3.826,8.566 -8.538,8.566 -4.713,0 -8.539,-3.839 -8.539,-8.566 0,-4.728 3.826,-8.566 8.539,-8.566 z m -3.718,3.735 -1.776,7.938 c -0.016,0.067 -0.027,0.132 -0.033,0.196 -0.006,0.064 -0.008,0.126 -0.008,0.187 0,0.278 0.077,0.53 0.233,0.755 0.156,0.225 0.364,0.417 0.625,0.575 0.262,0.159 0.567,0.282 0.918,0.371 0.35,0.089 0.722,0.134 1.117,0.134 0.317,0 0.616,-0.031 0.896,-0.092 0.281,-0.061 0.531,-0.139 0.751,-0.233 0.219,-0.095 0.403,-0.196 0.55,-0.305 0.147,-0.108 0.246,-0.21 0.296,-0.304 -0.039,-0.061 -0.079,-0.207 -0.121,-0.438 -0.041,-0.231 -0.079,-0.54 -0.112,-0.93 -0.206,-0.011 -0.402,-0.033 -0.588,-0.066 -0.186,-0.034 -0.352,-0.077 -0.496,-0.129 -0.145,-0.053 -0.26,-0.114 -0.346,-0.184 -0.086,-0.069 -0.13,-0.146 -0.13,-0.229 0,-0.045 0.009,-0.085 0.025,-0.121 0.017,-0.036 0.037,-0.068 0.059,-0.096 0.067,0.05 0.15,0.101 0.25,0.154 0.1,0.053 0.22,0.102 0.359,0.146 0.139,0.045 0.301,0.082 0.487,0.113 0.187,0.03 0.399,0.046 0.638,0.046 0.128,0 0.266,-0.01 0.413,-0.03 0.147,-0.019 0.295,-0.048 0.442,-0.087 0.147,-0.039 0.288,-0.088 0.421,-0.146 0.133,-0.058 0.25,-0.124 0.35,-0.196 0.072,0.056 0.109,0.128 0.109,0.217 0,0.066 -0.043,0.133 -0.13,0.2 -0.086,0.067 -0.197,0.126 -0.333,0.179 -0.136,0.053 -0.289,0.097 -0.459,0.134 -0.169,0.036 -0.34,0.057 -0.513,0.062 l 0.184,1.017 c 0.039,0.223 0.126,0.416 0.263,0.58 0.136,0.164 0.308,0.3 0.516,0.408 0.209,0.109 0.449,0.191 0.722,0.246 0.272,0.056 0.564,0.084 0.875,0.084 0.706,0 1.29,-0.106 1.751,-0.317 0.462,-0.211 0.82,-0.481 1.076,-0.809 l -1.901,-7.863 c -0.089,-0.367 -0.259,-0.682 -0.509,-0.946 -0.25,-0.264 -0.55,-0.48 -0.9,-0.647 -0.351,-0.166 -0.738,-0.289 -1.164,-0.366 -0.425,-0.078 -0.854,-0.117 -1.288,-0.117 -0.328,0 -0.654,0.021 -0.98,0.062 -0.325,0.042 -0.639,0.102 -0.942,0.18 -0.303,0.077 -0.59,0.173 -0.863,0.287 -0.272,0.114 -0.517,0.241 -0.734,0.38 z m 3.919,4.294 0.042,0.242 c -0.022,0.011 -0.055,0.023 -0.1,0.037 -0.044,0.014 -0.092,0.021 -0.142,0.021 -0.033,0 -0.071,-0.005 -0.112,-0.017 -0.042,-0.011 -0.074,-0.027 -0.096,-0.05 l -0.317,-1.684 c 0.028,-0.011 0.058,-0.022 0.092,-0.033 0.033,-0.011 0.069,-0.017 0.108,-0.017 0.061,0 0.113,0.015 0.154,0.046 0.042,0.03 0.081,0.097 0.117,0.2 0.036,0.103 0.072,0.254 0.108,0.454 z"
   style="fill:#f2d023;fill-opacity:1;stroke:#f2d023;stroke-width:1.28px;stroke-opacity:1"
   id="path1218" />
                    </g>
                    <g
   transform="matrix(1.16179,-0.147906,0.147906,1.16179,-579.622,51.112)"
   id="g1224"
   style="fill:#f2d023;fill-opacity:1;stroke:#f2d023;stroke-opacity:1">
                        <path
   d="m 958.086,507.826 c 4.712,0 8.538,3.838 8.538,8.566 0,4.727 -3.826,8.566 -8.538,8.566 -4.713,0 -8.539,-3.839 -8.539,-8.566 0,-4.728 3.826,-8.566 8.539,-8.566 z m -5.212,4.512 c 0.122,0.95 0.274,1.875 0.455,2.772 0.18,0.898 0.375,1.743 0.583,2.535 0.209,0.792 0.424,1.515 0.646,2.168 0.223,0.653 0.437,1.205 0.643,1.655 0.166,0.128 0.361,0.241 0.583,0.338 0.223,0.097 0.463,0.178 0.721,0.242 0.259,0.064 0.53,0.112 0.813,0.146 0.284,0.033 0.573,0.05 0.868,0.05 0.433,0 0.845,-0.031 1.234,-0.092 0.389,-0.061 0.74,-0.164 1.055,-0.308 0.314,-0.145 0.58,-0.341 0.8,-0.588 0.22,-0.248 0.379,-0.56 0.48,-0.938 0.528,-2.046 0.926,-3.651 1.196,-4.816 0.27,-1.164 0.404,-1.916 0.404,-2.255 0,-0.284 -0.047,-0.549 -0.141,-0.797 -0.095,-0.247 -0.245,-0.465 -0.451,-0.654 -0.205,-0.189 -0.466,-0.338 -0.783,-0.446 -0.317,-0.109 -0.695,-0.163 -1.134,-0.163 -0.178,0 -0.371,0.014 -0.58,0.042 -0.208,0.028 -0.413,0.065 -0.613,0.112 -0.2,0.048 -0.385,0.105 -0.554,0.171 -0.17,0.067 -0.302,0.142 -0.396,0.225 l -0.367,6.071 c -0.011,0.161 -0.043,0.271 -0.096,0.329 -0.053,0.059 -0.124,0.088 -0.213,0.088 -0.05,0 -0.108,-0.009 -0.175,-0.025 l 0.267,-5.295 c -0.072,-0.223 -0.174,-0.438 -0.304,-0.646 -0.131,-0.209 -0.305,-0.392 -0.522,-0.551 -0.216,-0.158 -0.482,-0.286 -0.796,-0.383 -0.314,-0.098 -0.691,-0.146 -1.13,-0.146 -0.561,0 -1.054,0.1 -1.48,0.3 -0.425,0.2 -0.763,0.486 -1.013,0.859 z"
   style="fill:#f2d023;fill-opacity:1;stroke:#f2d023;stroke-width:1.28px;stroke-opacity:1"
   id="path1222" />
                    </g>
                    <g
   transform="matrix(1.16179,-0.147906,0.147906,1.16179,-602.191,54.0455)"
   id="g1228"
   style="fill:#f2d023;fill-opacity:1;stroke:#f2d023;stroke-opacity:1">
                        <path
   d="m 958.086,507.826 c 4.712,0 8.538,3.838 8.538,8.566 0,4.727 -3.826,8.566 -8.538,8.566 -4.713,0 -8.539,-3.839 -8.539,-8.566 0,-4.728 3.826,-8.566 8.539,-8.566 z m -1.955,13.854 h 6.062 c 0.1,-0.112 0.189,-0.248 0.266,-0.409 0.078,-0.161 0.145,-0.336 0.201,-0.525 0.055,-0.189 0.098,-0.388 0.129,-0.596 0.03,-0.209 0.046,-0.413 0.046,-0.613 0,-0.139 -0.014,-0.289 -0.042,-0.451 -0.028,-0.161 -0.065,-0.323 -0.113,-0.487 -0.047,-0.164 -0.104,-0.326 -0.171,-0.484 -0.066,-0.158 -0.141,-0.31 -0.225,-0.454 h -1.976 c -0.522,0 -0.984,0.05 -1.384,0.15 -0.4,0.1 -0.756,0.28 -1.067,0.542 -0.045,-0.028 -0.082,-0.06 -0.113,-0.096 -0.031,-0.036 -0.046,-0.085 -0.046,-0.146 0,-0.084 0.046,-0.166 0.138,-0.246 0.091,-0.081 0.205,-0.154 0.342,-0.221 0.136,-0.067 0.283,-0.122 0.442,-0.167 0.158,-0.044 0.307,-0.072 0.446,-0.083 v -4.561 c 0,-0.351 -0.07,-0.656 -0.209,-0.918 -0.139,-0.261 -0.324,-0.476 -0.554,-0.646 -0.231,-0.169 -0.495,-0.296 -0.792,-0.379 -0.298,-0.084 -0.602,-0.125 -0.914,-0.125 -0.45,0 -0.889,0.068 -1.317,0.204 -0.428,0.136 -0.789,0.329 -1.084,0.579 v 8.155 c 0,0.679 0.172,1.178 0.517,1.497 0.345,0.32 0.817,0.48 1.418,0.48 z"
   style="fill:#f2d023;fill-opacity:1;stroke:#f2d023;stroke-width:1.28px;stroke-opacity:1"
   id="path1226" />
                    </g>
                    <g
   transform="matrix(1.16179,-0.147906,0.147906,1.16179,-582.377,28.9679)"
   id="g1232"
   style="fill:#f2d023;fill-opacity:1;stroke:#f2d023;stroke-opacity:1">
                        <path
   d="m 958.086,507.826 c 4.712,0 8.538,3.838 8.538,8.566 0,4.727 -3.826,8.566 -8.538,8.566 -4.713,0 -8.539,-3.839 -8.539,-8.566 0,-4.728 3.826,-8.566 8.539,-8.566 z m -1.458,11.503 c 0,0.089 -0.023,0.155 -0.067,0.196 -0.045,0.042 -0.1,0.063 -0.167,0.063 -0.05,0 -0.113,-0.02 -0.188,-0.059 -0.075,-0.038 -0.148,-0.086 -0.221,-0.141 -0.072,-0.056 -0.141,-0.113 -0.208,-0.171 -0.067,-0.059 -0.117,-0.105 -0.15,-0.138 v 1.468 c 0,0.3 0.06,0.558 0.179,0.775 0.12,0.217 0.288,0.396 0.505,0.538 0.216,0.142 0.476,0.246 0.779,0.313 0.303,0.066 0.638,0.1 1.005,0.1 0.178,0 0.357,-0.009 0.538,-0.025 0.181,-0.017 0.37,-0.05 0.567,-0.1 0.197,-0.05 0.402,-0.121 0.613,-0.213 0.211,-0.092 0.439,-0.213 0.684,-0.363 v -2.751 c 0.322,-0.289 0.649,-0.623 0.979,-1.001 0.331,-0.378 0.63,-0.792 0.897,-1.242 0.266,-0.451 0.483,-0.937 0.65,-1.46 0.167,-0.522 0.25,-1.075 0.25,-1.659 0,-0.367 -0.062,-0.691 -0.187,-0.971 -0.125,-0.281 -0.302,-0.516 -0.53,-0.705 -0.228,-0.189 -0.503,-0.332 -0.825,-0.429 -0.323,-0.098 -0.679,-0.146 -1.068,-0.146 -0.35,0 -0.675,0.034 -0.975,0.104 -0.3,0.069 -0.559,0.157 -0.776,0.263 -0.039,0.155 -0.089,0.365 -0.15,0.629 -0.061,0.264 -0.126,0.555 -0.196,0.872 l -0.217,0.988 c -0.075,0.341 -0.147,0.664 -0.216,0.967 -0.07,0.303 -0.134,0.572 -0.192,0.809 -0.059,0.236 -0.104,0.407 -0.138,0.512 -0.111,0 -0.189,-0.026 -0.233,-0.079 -0.045,-0.053 -0.067,-0.121 -0.067,-0.204 0,-0.061 0.01,-0.131 0.029,-0.208 0.02,-0.078 0.035,-0.148 0.046,-0.209 l 0.367,-1.618 c -0.039,-0.15 -0.093,-0.34 -0.163,-0.571 -0.069,-0.23 -0.141,-0.464 -0.216,-0.7 -0.075,-0.236 -0.149,-0.459 -0.221,-0.667 -0.073,-0.209 -0.128,-0.363 -0.167,-0.463 -0.239,-0.128 -0.502,-0.228 -0.788,-0.3 -0.286,-0.072 -0.621,-0.109 -1.005,-0.109 -0.233,0 -0.478,0.023 -0.734,0.067 -0.255,0.045 -0.503,0.114 -0.742,0.209 -0.239,0.094 -0.461,0.214 -0.667,0.358 -0.206,0.145 -0.378,0.32 -0.517,0.525 0.039,0.706 0.147,1.387 0.325,2.043 0.178,0.656 0.427,1.277 0.747,1.864 0.319,0.586 0.714,1.135 1.184,1.647 0.469,0.511 1.018,0.975 1.647,1.392 z"
   style="fill:#f2d023;fill-opacity:1;stroke:#f2d023;stroke-width:1.28px;stroke-opacity:1"
   id="path1230" />
                    </g>
                </g>
            </g>
        </g>
    </g></svg>
