<?xml version="1.0" encoding="UTF-8" standalone="no"?>
<!DOCTYPE svg PUBLIC "-//W3C//DTD SVG 1.1//EN" "http://www.w3.org/Graphics/SVG/1.1/DTD/svg11.dtd">
<svg width="100%" height="100%" viewBox="0 0 503 181" version="1.1" xmlns="http://www.w3.org/2000/svg" xmlns:xlink="http://www.w3.org/1999/xlink" xml:space="preserve" xmlns:serif="http://www.serif.com/" style="fill-rule:evenodd;clip-rule:evenodd;stroke-linejoin:round;stroke-miterlimit:2;">
    <g transform="matrix(1,0,0,1,-242.93,-856.39)">
        <g transform="matrix(1,0,0,1,76.245,9.43039)">
            <g>
                <g transform="matrix(0.606341,0,0,0.606341,-125.004,546.579)">
                    <path d="M512.562,673.251C502.787,673.251 495.093,670.649 489.481,665.445C483.87,660.24 481.064,652.117 481.064,641.075L481.064,508.296C485.861,504.223 491.744,501.078 498.714,498.86C505.683,496.643 512.833,495.534 520.165,495.534C525.233,495.534 530.189,496.213 535.031,497.57C539.873,498.928 544.172,500.987 547.929,503.748C551.685,506.508 554.694,510.016 556.957,514.27C559.22,518.524 560.351,523.502 560.351,529.204L560.351,603.468C558.088,603.649 555.667,604.101 553.088,604.825C550.508,605.55 548.11,606.455 545.892,607.541C543.675,608.627 541.819,609.826 540.326,611.139C538.832,612.451 538.086,613.786 538.086,615.144C538.086,616.139 538.335,616.931 538.832,617.52C539.33,618.108 539.941,618.628 540.665,619.081C545.734,614.827 551.526,611.885 558.043,610.256C564.56,608.627 572.072,607.812 580.58,607.812L612.757,607.812C614.114,610.166 615.336,612.632 616.422,615.212C617.509,617.791 618.436,620.416 619.206,623.086C619.975,625.756 620.586,628.403 621.039,631.028C621.491,633.653 621.717,636.097 621.717,638.36C621.717,641.618 621.468,644.944 620.971,648.338C620.473,651.732 619.771,654.968 618.866,658.046C617.961,661.123 616.875,663.974 615.608,666.599C614.341,669.224 612.893,671.441 611.263,673.251L512.562,673.251Z" style="fill:rgb(65,88,217);fill-rule:nonzero;"/>
                    <path d="M658.374,627.634C648.146,620.846 639.208,613.288 631.56,604.961C623.912,596.634 617.486,587.696 612.282,578.147C607.077,568.599 603.027,558.484 600.131,547.804C597.234,537.124 595.469,526.036 594.836,514.541C597.098,511.192 599.904,508.341 603.253,505.988C606.602,503.635 610.222,501.689 614.114,500.15C618.006,498.611 622.034,497.48 626.198,496.756C630.361,496.032 634.344,495.67 638.145,495.67C644.39,495.67 649.843,496.258 654.505,497.435C659.166,498.611 663.443,500.241 667.335,502.322C667.968,503.951 668.873,506.463 670.05,509.857C671.227,513.251 672.426,516.872 673.648,520.719C674.87,524.565 676.046,528.367 677.178,532.123C678.309,535.879 679.192,538.979 679.825,541.423L673.851,567.761C673.67,568.757 673.421,569.888 673.105,571.156C672.788,572.423 672.629,573.554 672.629,574.55C672.629,575.907 672.992,577.016 673.716,577.876C674.44,578.736 675.707,579.166 677.517,579.166C678.06,577.446 678.807,574.663 679.757,570.816C680.708,566.969 681.748,562.58 682.88,557.647C684.011,552.714 685.188,547.464 686.41,541.898C687.632,536.332 688.808,530.969 689.94,525.81C691.071,520.651 692.135,515.921 693.13,511.622C694.126,507.323 694.94,503.906 695.574,501.372C699.104,499.652 703.313,498.227 708.2,497.095C713.088,495.964 718.383,495.398 724.085,495.398C730.42,495.398 736.213,496.19 741.463,497.774C746.712,499.358 751.193,501.689 754.904,504.766C758.614,507.843 761.488,511.667 763.525,516.238C765.561,520.809 766.579,526.081 766.579,532.055C766.579,541.559 765.222,550.564 762.506,559.072C759.791,567.58 756.261,575.5 751.917,582.831C747.572,590.163 742.707,596.906 737.322,603.06C731.937,609.215 726.619,614.646 721.369,619.352L721.369,664.155C717.387,666.599 713.676,668.567 710.237,670.061C706.797,671.554 703.471,672.708 700.258,673.523C697.045,674.337 693.967,674.881 691.026,675.152C688.084,675.424 685.165,675.559 682.269,675.559C676.295,675.559 670.842,675.016 665.909,673.93C660.976,672.844 656.745,671.147 653.215,668.839C649.685,666.531 646.947,663.612 645.001,660.082C643.055,656.552 642.082,652.343 642.082,647.456L642.082,623.561C642.625,624.104 643.44,624.851 644.526,625.801C645.612,626.752 646.743,627.679 647.92,628.584C649.097,629.49 650.296,630.259 651.518,630.892C652.74,631.526 653.758,631.843 654.573,631.843C655.659,631.843 656.564,631.503 657.288,630.825C658.012,630.146 658.374,629.082 658.374,627.634Z" style="fill:rgb(65,88,217);fill-rule:nonzero;"/>
                    <path d="M770.517,514.27C774.59,508.205 780.088,503.544 787.012,500.286C793.936,497.027 801.969,495.398 811.111,495.398C818.261,495.398 824.393,496.19 829.507,497.774C834.621,499.358 838.943,501.44 842.472,504.019C846.002,506.599 848.831,509.586 850.958,512.98C853.085,516.374 854.737,519.881 855.913,523.502L851.569,609.713C852.655,609.985 853.605,610.12 854.42,610.12C855.868,610.12 857.022,609.645 857.882,608.695C858.742,607.744 859.262,605.957 859.443,603.332L865.417,504.495C866.956,503.137 869.105,501.915 871.866,500.829C874.626,499.743 877.636,498.815 880.894,498.046C884.153,497.276 887.479,496.665 890.873,496.213C894.267,495.76 897.412,495.534 900.309,495.534C907.459,495.534 913.614,496.416 918.773,498.181C923.932,499.946 928.186,502.368 931.535,505.445C934.884,508.522 937.327,512.075 938.866,516.103C940.405,520.13 941.174,524.452 941.174,529.068C941.174,534.589 938.979,546.831 934.59,565.793C930.2,584.755 923.706,610.89 915.107,644.197C913.478,650.352 910.876,655.443 907.301,659.471C903.725,663.499 899.381,666.689 894.267,669.043C889.153,671.396 883.428,673.07 877.093,674.066C870.757,675.062 864.059,675.559 856.999,675.559C852.202,675.559 847.496,675.288 842.88,674.745C838.264,674.202 833.851,673.41 829.643,672.369C825.434,671.328 821.519,670.016 817.899,668.432C814.278,666.848 811.111,665.015 808.395,662.933C805.046,655.602 801.562,646.619 797.941,635.984C794.321,625.349 790.814,613.582 787.419,600.685C784.025,587.787 780.857,574.029 777.916,559.412C774.974,544.794 772.508,529.747 770.517,514.27Z" style="fill:rgb(65,88,217);fill-rule:nonzero;"/>
                    <path d="M958.688,510.197C962.218,507.934 966.2,505.875 970.635,504.019C975.07,502.164 979.754,500.603 984.687,499.335C989.62,498.068 994.734,497.095 1000.03,496.416C1005.32,495.738 1010.64,495.398 1015.98,495.398C1023.04,495.398 1030.03,496.032 1036.96,497.299C1043.88,498.566 1050.19,500.557 1055.9,503.273C1061.6,505.988 1066.49,509.495 1070.56,513.794C1074.63,518.094 1077.39,523.23 1078.84,529.204L1109.8,657.231C1105.63,662.571 1099.79,666.961 1092.28,670.4C1084.77,673.84 1075.27,675.559 1063.77,675.559C1058.7,675.559 1053.95,675.107 1049.52,674.202C1045.08,673.297 1041.17,671.962 1037.77,670.197C1034.38,668.432 1031.57,666.214 1029.35,663.544C1027.14,660.874 1025.71,657.729 1025.08,654.108L1022.09,637.545C1024.9,637.454 1027.68,637.115 1030.44,636.527C1033.2,635.938 1035.69,635.214 1037.91,634.354C1040.12,633.495 1041.93,632.522 1043.34,631.436C1044.74,630.349 1045.44,629.263 1045.44,628.177C1045.44,626.729 1044.85,625.552 1043.68,624.647C1042.05,625.824 1040.15,626.887 1037.97,627.838C1035.8,628.788 1033.52,629.58 1031.12,630.214C1028.72,630.847 1026.32,631.322 1023.92,631.639C1021.52,631.956 1019.28,632.114 1017.2,632.114C1013.31,632.114 1009.85,631.865 1006.82,631.368C1003.78,630.87 1001.14,630.259 998.875,629.535C996.612,628.811 994.666,628.019 993.037,627.159C991.407,626.299 990.05,625.462 988.964,624.647C988.602,625.1 988.285,625.62 988.013,626.209C987.742,626.797 987.606,627.453 987.606,628.177C987.606,629.535 988.308,630.779 989.71,631.911C991.113,633.042 992.991,634.038 995.345,634.898C997.698,635.757 1000.39,636.459 1003.42,637.002C1006.46,637.545 1009.64,637.907 1012.99,638.088C1013.54,644.424 1014.15,649.47 1014.83,653.226C1015.51,656.982 1016.16,659.358 1016.8,660.354C1015.98,661.892 1014.38,663.544 1011.98,665.309C1009.58,667.074 1006.59,668.726 1003.01,670.265C999.44,671.803 995.367,673.07 990.797,674.066C986.226,675.062 981.361,675.559 976.202,675.559C969.775,675.559 963.711,674.835 958.009,673.387C952.307,671.939 947.329,669.925 943.075,667.346C938.821,664.766 935.427,661.643 932.892,657.978C930.358,654.312 929.091,650.216 929.091,645.691C929.091,644.695 929.136,643.677 929.227,642.636C929.317,641.595 929.498,640.532 929.77,639.446L958.688,510.197ZM1022.5,580.116C1021.5,574.685 1020.71,570.341 1020.12,567.083C1019.53,563.824 1018.95,561.358 1018.36,559.683C1017.77,558.009 1017.13,556.923 1016.46,556.425C1015.78,555.927 1014.94,555.678 1013.95,555.678C1013.31,555.678 1012.72,555.769 1012.18,555.95C1011.64,556.131 1011.14,556.312 1010.69,556.493L1015.85,583.918C1016.21,584.28 1016.73,584.551 1017.41,584.732C1018.09,584.913 1018.7,585.004 1019.24,585.004C1020.05,585.004 1020.82,584.89 1021.55,584.664C1022.27,584.438 1022.82,584.234 1023.18,584.053L1022.5,580.116Z" style="fill:rgb(65,88,217);fill-rule:nonzero;"/>
                    <path d="M1223.97,638.631C1227.14,637.907 1230.58,636.414 1234.29,634.151C1238,631.888 1241.58,628.222 1245.02,623.154C1246.56,620.801 1247.33,618.764 1247.33,617.044C1247.33,614.691 1246.15,613.514 1243.8,613.514C1243.62,613.514 1243.46,613.537 1243.32,613.582C1243.18,613.628 1243.03,613.65 1242.85,613.65C1236.42,626.955 1226.15,633.608 1212.03,633.608C1208.5,633.608 1205.22,633.246 1202.18,632.522C1199.15,631.798 1196.32,630.621 1193.7,628.992C1191.07,627.363 1188.59,625.19 1186.23,622.475C1183.88,619.76 1181.62,616.411 1179.44,612.428L1178.63,612.428C1177.63,612.428 1176.77,612.655 1176.05,613.107C1175.33,613.56 1174.96,614.374 1174.96,615.551C1174.96,617.09 1175.51,618.719 1176.59,620.438C1178.58,623.697 1180.73,626.503 1183.04,628.856C1185.35,631.209 1187.7,633.178 1190.1,634.762C1192.5,636.346 1194.88,637.545 1197.23,638.36C1199.58,639.174 1201.71,639.672 1203.61,639.853L1202.52,665.513C1200.17,667.051 1197.7,668.454 1195.12,669.721C1192.54,670.989 1189.63,672.052 1186.37,672.912C1183.11,673.772 1179.42,674.428 1175.3,674.881C1171.18,675.333 1166.45,675.559 1161.12,675.559C1156.05,675.559 1150.75,675.062 1145.23,674.066C1139.71,673.07 1134.64,671.419 1130.02,669.111C1125.41,666.802 1121.58,663.838 1118.55,660.218C1115.52,656.597 1114,652.117 1114,646.777C1114,643.971 1114.14,640.147 1114.41,635.305C1114.68,630.463 1115.07,624.964 1115.57,618.809C1116.06,612.655 1116.63,606.002 1117.26,598.852C1117.9,591.701 1118.58,584.483 1119.3,577.197C1120.02,569.911 1120.75,562.693 1121.47,555.542C1122.19,548.392 1122.92,541.74 1123.64,535.585C1124.37,529.43 1125.02,523.954 1125.61,519.157C1126.2,514.36 1126.72,510.604 1127.17,507.889C1129.8,505.535 1132.79,503.544 1136.13,501.915C1139.48,500.286 1142.99,498.996 1146.66,498.046C1150.32,497.095 1154.01,496.416 1157.72,496.009C1161.43,495.602 1165.01,495.398 1168.45,495.398C1174.6,495.398 1180.64,496.077 1186.57,497.435C1192.5,498.792 1197.41,500.557 1201.3,502.73L1208.77,527.71L1204.02,547.668C1203.84,548.392 1203.7,549.071 1203.61,549.705C1203.52,550.338 1203.47,550.972 1203.47,551.605C1203.47,554.683 1205.28,556.312 1208.9,556.493L1221.8,502.865C1223.34,502.051 1225.31,501.191 1227.71,500.286C1230.11,499.381 1232.78,498.566 1235.72,497.842C1238.66,497.118 1241.85,496.53 1245.29,496.077C1248.73,495.625 1252.26,495.398 1255.88,495.398C1262.31,495.398 1267.94,495.919 1272.78,496.96C1277.62,498 1281.7,499.675 1285,501.983C1288.31,504.291 1290.91,507.3 1292.81,511.011C1294.71,514.722 1295.98,519.293 1296.61,524.724C1297.24,530.426 1298.03,537.305 1298.99,545.36C1299.93,553.415 1300.91,561.946 1301.9,570.952C1302.9,579.958 1303.89,589.077 1304.89,598.309C1305.89,607.541 1306.77,616.207 1307.54,624.308C1308.31,632.409 1308.94,639.581 1309.44,645.827C1309.94,652.072 1310.19,656.688 1310.19,659.675C1300.14,670.265 1285.66,675.559 1266.74,675.559C1260.77,675.559 1255.29,675.062 1250.31,674.066C1245.34,673.07 1241.06,671.554 1237.48,669.518C1233.91,667.481 1231.06,664.97 1228.93,661.983C1226.8,658.996 1225.56,655.466 1225.2,651.393L1223.97,638.631Z" style="fill:rgb(65,88,217);fill-rule:nonzero;"/>
                </g>
            </g>
            <g transform="matrix(1,0,0,1,139.551,-84.6687)">
                <path d="M182.445,1083.91C182.077,1083.91 181.721,1083.91 181.377,1083.93C181.032,1083.94 180.728,1083.98 180.464,1084.06C180.2,1084.14 179.987,1084.27 179.826,1084.43C179.666,1084.59 179.585,1084.82 179.585,1085.12L179.585,1085.31C179.585,1085.38 179.597,1085.45 179.62,1085.49C180.01,1085.47 180.343,1085.46 180.619,1085.46L181.446,1085.46C182.594,1085.46 183.777,1085.55 184.994,1085.72C186.211,1085.89 187.389,1086.17 188.525,1086.56C189.662,1086.95 190.736,1087.47 191.747,1088.11C192.757,1088.76 193.636,1089.54 194.382,1090.45C195.129,1091.37 195.72,1092.45 196.157,1093.69C196.593,1094.93 196.811,1096.35 196.811,1097.93C196.811,1100.32 196.38,1102.4 195.519,1104.18C194.658,1105.96 193.435,1107.44 191.85,1108.61C190.265,1109.78 188.359,1110.66 186.131,1111.25C183.903,1111.83 181.423,1112.12 178.689,1112.12C176.163,1112.12 173.849,1111.91 171.747,1111.47C169.646,1111.03 167.849,1110.38 166.356,1109.51C164.863,1108.63 163.703,1107.54 162.876,1106.22C162.049,1104.9 161.636,1103.34 161.636,1101.55C161.636,1100.88 161.716,1100.25 161.877,1099.64C162.038,1099.03 162.244,1098.47 162.497,1097.97C162.75,1097.46 163.037,1097.02 163.358,1096.64C163.68,1096.26 164.001,1095.97 164.323,1095.76C164.874,1096.22 165.592,1096.68 166.476,1097.16C167.361,1097.63 168.371,1098.05 169.508,1098.41C170.645,1098.78 171.879,1099.08 173.212,1099.31C174.544,1099.54 175.956,1099.65 177.449,1099.65C178.138,1099.65 178.58,1099.56 178.776,1099.38C178.971,1099.19 179.068,1098.94 179.068,1098.62C179.068,1098.44 179.034,1098.25 178.965,1098.07C178.712,1098.09 178.517,1098.1 178.379,1098.1L178,1098.1C175.75,1098.1 173.619,1097.87 171.61,1097.41C169.6,1096.95 167.837,1096.23 166.321,1095.23C164.805,1094.23 163.6,1092.96 162.704,1091.42C161.808,1089.88 161.36,1088.02 161.36,1085.84C161.36,1084.02 161.728,1082.3 162.463,1080.65C163.198,1079.01 164.312,1077.57 165.804,1076.33C167.297,1075.09 169.169,1074.1 171.42,1073.37C173.671,1072.63 176.312,1072.26 179.344,1072.26C180.837,1072.26 182.272,1072.35 183.651,1072.52C185.029,1072.69 186.321,1072.93 187.526,1073.23C188.732,1073.53 189.846,1073.88 190.868,1074.28C191.89,1074.68 192.78,1075.1 193.538,1075.54C193.768,1076.02 193.934,1076.66 194.038,1077.47C194.141,1078.27 194.193,1079.02 194.193,1079.71C194.193,1081.29 193.963,1082.61 193.504,1083.67C193.044,1084.72 192.505,1085.55 191.885,1086.15C191.356,1085.85 190.748,1085.57 190.059,1085.31C189.37,1085.04 188.617,1084.81 187.802,1084.6C186.987,1084.39 186.125,1084.22 185.218,1084.1C184.311,1083.97 183.386,1083.91 182.445,1083.91Z" style="fill:rgb(65,88,217);fill-rule:nonzero;"/>
                <path d="M200.601,1089.28L202.737,1089.28C203.334,1089.28 203.77,1089.18 204.046,1088.97C204.322,1088.77 204.459,1088.49 204.459,1088.15C204.459,1088.01 204.436,1087.87 204.391,1087.73L196.673,1087.73C196.421,1086.91 196.231,1085.99 196.105,1084.99C195.979,1084 195.915,1082.98 195.915,1081.94C195.915,1081.28 195.956,1080.52 196.036,1079.65C196.116,1078.79 196.225,1078.08 196.363,1077.5C197.328,1076.9 198.287,1076.26 199.24,1075.57C200.193,1074.88 201.037,1074.26 201.772,1073.71C201.979,1073.23 202.22,1072.6 202.496,1071.82C202.771,1071.04 203.047,1070.22 203.323,1069.37C203.598,1068.52 203.862,1067.7 204.115,1066.91C204.368,1066.12 204.586,1065.45 204.77,1064.93C205.504,1064.74 206.481,1064.58 207.698,1064.44C208.915,1064.31 210.155,1064.24 211.419,1064.24C212.406,1064.24 213.4,1064.3 214.399,1064.41C215.398,1064.52 216.495,1064.71 217.689,1064.96L217.689,1073.4L228.025,1073.4C228.691,1074.41 229.19,1075.54 229.523,1076.8C229.856,1078.05 230.023,1079.29 230.023,1080.53C230.023,1081.7 229.856,1082.95 229.523,1084.27C229.19,1085.59 228.691,1086.73 228.025,1087.7L218.723,1087.7L218.723,1092.9C218.723,1094.49 219.044,1095.62 219.687,1096.3C220.33,1096.97 221.238,1097.31 222.409,1097.31L223.89,1097.31C224.074,1098 224.241,1098.74 224.39,1099.52C224.539,1100.3 224.614,1101.08 224.614,1101.86C224.614,1105.05 223.615,1107.49 221.616,1109.16C219.618,1110.84 216.77,1111.68 213.072,1111.68C211.212,1111.68 209.518,1111.42 207.991,1110.92C206.463,1110.41 205.148,1109.64 204.046,1108.61C202.944,1107.58 202.094,1106.29 201.497,1104.74C200.899,1103.18 200.601,1101.35 200.601,1099.24L200.601,1089.28Z" style="fill:rgb(65,88,217);fill-rule:nonzero;"/>
                <path d="M247.869,1109.68C247.593,1109.91 247.266,1110.14 246.887,1110.38C246.508,1110.63 246.054,1110.84 245.526,1111.02C244.998,1111.21 244.378,1111.36 243.666,1111.49C242.954,1111.61 242.127,1111.68 241.185,1111.68C240.152,1111.68 239.084,1111.59 237.981,1111.4C236.879,1111.22 235.805,1110.9 234.76,1110.45C233.715,1110.01 232.721,1109.4 231.78,1108.65C230.838,1107.89 230.017,1106.94 229.316,1105.8C228.616,1104.67 228.059,1103.32 227.646,1101.77C227.232,1100.22 227.025,1098.41 227.025,1096.35L227.025,1087.7C226.543,1086.85 226.13,1085.87 225.785,1084.75C225.441,1083.64 225.268,1082.37 225.268,1080.95C225.268,1080.33 225.309,1079.68 225.389,1079.02C225.469,1078.35 225.59,1077.69 225.751,1077.04C225.911,1076.38 226.118,1075.74 226.371,1075.12C226.623,1074.5 226.934,1073.93 227.301,1073.4L234.88,1073.4C236.213,1073.4 237.441,1073.56 238.567,1073.87C239.692,1074.18 240.657,1074.66 241.461,1075.33C242.265,1076 242.891,1076.84 243.338,1077.86C243.786,1078.88 244.01,1080.11 244.01,1081.53L244.01,1092.69C244.01,1093.98 244.131,1094.86 244.372,1095.33C244.613,1095.8 244.917,1096.04 245.285,1096.04C245.515,1096.04 245.693,1096 245.819,1095.93C245.945,1095.86 246.066,1095.78 246.181,1095.69C246.066,1095.3 245.98,1094.83 245.922,1094.28C245.865,1093.73 245.836,1093.02 245.836,1092.14L245.836,1075.12C246.273,1074.87 246.761,1074.61 247.3,1074.35C247.84,1074.09 248.466,1073.85 249.178,1073.64C249.89,1073.44 250.688,1073.26 251.572,1073.13C252.457,1072.99 253.473,1072.92 254.621,1072.92C256.62,1072.92 258.342,1073.19 259.789,1073.73C261.236,1074.27 262.327,1074.94 263.062,1075.74L263.062,1093.69C263.062,1095.28 263.234,1096.64 263.579,1097.78C263.923,1098.91 264.578,1099.78 265.543,1100.38C265.566,1100.56 265.577,1100.79 265.577,1101.05L265.577,1101.65C265.577,1103.4 265.342,1104.9 264.871,1106.16C264.4,1107.43 263.751,1108.47 262.924,1109.28C262.097,1110.1 261.116,1110.7 259.979,1111.09C258.842,1111.48 257.607,1111.68 256.275,1111.68C254.575,1111.68 252.996,1111.29 251.538,1110.51C250.079,1109.73 248.983,1108.54 248.248,1106.96C247.467,1106.96 247.076,1107.34 247.076,1108.09C247.076,1108.35 247.145,1108.61 247.283,1108.89C247.421,1109.16 247.616,1109.43 247.869,1109.68Z" style="fill:rgb(65,88,217);fill-rule:nonzero;"/>
                <path d="M302.578,1093.69C302.578,1095.28 302.751,1096.64 303.095,1097.78C303.44,1098.91 304.094,1099.78 305.059,1100.38C305.082,1100.56 305.093,1100.79 305.093,1101.05L305.093,1101.65C305.093,1103.4 304.818,1104.9 304.267,1106.16C303.715,1107.43 302.998,1108.47 302.113,1109.28C301.229,1110.1 300.224,1110.7 299.099,1111.09C297.973,1111.48 296.825,1111.68 295.654,1111.68C294.827,1111.68 294.017,1111.59 293.225,1111.4C292.432,1111.22 291.686,1110.93 290.985,1110.54C290.285,1110.15 289.653,1109.66 289.09,1109.06C288.528,1108.46 288.086,1107.76 287.764,1106.96C286.983,1106.96 286.593,1107.34 286.593,1108.09C286.593,1108.42 286.725,1108.8 286.989,1109.25C287.253,1109.7 287.615,1110.1 288.074,1110.47C287.408,1110.86 286.593,1111.16 285.628,1111.37C284.663,1111.57 283.722,1111.68 282.803,1111.68C281.448,1111.68 280.093,1111.53 278.738,1111.23C277.383,1110.93 276.085,1110.45 274.845,1109.8C273.604,1109.14 272.444,1108.31 271.365,1107.29C270.285,1106.26 269.35,1105.03 268.557,1103.6C267.765,1102.16 267.139,1100.52 266.68,1098.65C266.22,1096.79 265.99,1094.68 265.99,1092.32C265.99,1089.31 266.438,1086.63 267.334,1084.29C268.23,1081.94 269.464,1079.97 271.038,1078.36C272.611,1076.76 274.471,1075.53 276.619,1074.69C278.766,1073.86 281.08,1073.44 283.561,1073.44C285.307,1073.44 286.834,1073.61 288.143,1073.95C289.452,1074.3 290.566,1074.7 291.485,1075.16C291.6,1075.04 291.692,1074.91 291.76,1074.76C291.829,1074.61 291.864,1074.48 291.864,1074.37C291.864,1074 291.628,1073.67 291.158,1073.37C290.687,1073.07 290.09,1072.81 289.366,1072.59C288.643,1072.37 287.844,1072.2 286.972,1072.08C286.099,1071.95 285.272,1071.88 284.491,1071.88C284.491,1071.45 284.474,1070.97 284.439,1070.46C284.405,1069.94 284.348,1069.43 284.267,1068.94C284.187,1068.45 284.089,1067.96 283.974,1067.49C283.86,1067.02 283.722,1066.61 283.561,1066.27C284.089,1065.65 284.663,1065.08 285.284,1064.55C285.904,1064.02 286.598,1063.57 287.368,1063.19C288.137,1062.81 288.999,1062.51 289.952,1062.29C290.905,1062.07 291.99,1061.96 293.207,1061.96C294.54,1061.96 295.78,1062.16 296.928,1062.55C298.077,1062.94 299.07,1063.52 299.908,1064.29C300.747,1065.06 301.401,1066 301.872,1067.11C302.343,1068.23 302.578,1069.51 302.578,1070.95L302.578,1093.69ZM285.731,1092.11C285.731,1091.35 285.743,1090.7 285.766,1090.16C285.789,1089.62 285.812,1089.15 285.835,1088.75C285.858,1088.35 285.886,1087.99 285.921,1087.66C285.955,1087.34 285.996,1087 286.041,1086.63C285.95,1086.54 285.841,1086.46 285.714,1086.39C285.588,1086.32 285.421,1086.29 285.215,1086.29C284.985,1086.29 284.784,1086.36 284.612,1086.49C284.439,1086.63 284.296,1086.93 284.181,1087.39C284.066,1087.85 283.992,1088.43 283.957,1089.15C283.923,1089.86 283.905,1090.73 283.905,1091.76L283.905,1095.28C283.905,1095.88 283.98,1096.31 284.129,1096.57C284.279,1096.83 284.572,1096.97 285.008,1096.97C285.329,1096.97 285.571,1096.89 285.731,1096.73L285.731,1092.11Z" style="fill:rgb(65,88,217);fill-rule:nonzero;"/>
                <path d="M306.782,1077.91C307.241,1077.62 307.7,1077.38 308.16,1077.19C308.619,1077.01 309.113,1076.78 309.641,1076.5C309.205,1076.27 308.757,1075.95 308.297,1075.54C307.838,1075.12 307.419,1074.62 307.04,1074.04C306.661,1073.45 306.351,1072.78 306.11,1072.02C305.869,1071.27 305.748,1070.42 305.748,1069.47C305.748,1068 306.006,1066.67 306.523,1065.46C307.04,1064.25 307.746,1063.22 308.642,1062.36C309.538,1061.5 310.583,1060.83 311.777,1060.34C312.971,1059.86 314.258,1059.62 315.636,1059.62C317.037,1059.62 318.329,1059.87 319.511,1060.38C320.694,1060.88 321.722,1061.57 322.595,1062.45C323.468,1063.32 324.151,1064.36 324.645,1065.56C325.139,1066.77 325.386,1068.07 325.386,1069.47C325.386,1070.67 325.185,1071.78 324.783,1072.8C324.381,1073.82 323.847,1074.73 323.181,1075.54C322.515,1076.34 321.734,1077.01 320.838,1077.55C319.942,1078.09 319.012,1078.47 318.047,1078.67C318.047,1079.02 318.122,1079.32 318.271,1079.59C318.421,1079.85 318.679,1079.98 319.046,1079.98C320.195,1079.98 321.389,1079.52 322.629,1078.6C322.698,1078.65 322.813,1078.73 322.974,1078.85C323.135,1078.96 323.307,1079.1 323.491,1079.26C323.674,1079.42 323.847,1079.57 324.007,1079.72C324.168,1079.87 324.272,1079.98 324.318,1080.05L324.318,1093.69C324.318,1095.28 324.49,1096.64 324.834,1097.78C325.179,1098.91 325.833,1099.78 326.798,1100.38C326.821,1100.56 326.833,1100.79 326.833,1101.05L326.833,1101.65C326.833,1103.4 326.591,1104.9 326.109,1106.16C325.627,1107.43 324.949,1108.47 324.076,1109.28C323.204,1110.1 322.164,1110.7 320.958,1111.09C319.753,1111.48 318.438,1111.68 317.014,1111.68C315.911,1111.68 314.757,1111.49 313.551,1111.13C312.345,1110.76 311.243,1110.14 310.244,1109.27C309.245,1108.39 308.418,1107.23 307.763,1105.77C307.109,1104.31 306.782,1102.49 306.782,1100.31L306.782,1077.91Z" style="fill:rgb(65,88,217);fill-rule:nonzero;"/>
                <path d="M346.573,1112.12C343.886,1112.12 341.365,1111.71 339.011,1110.88C336.657,1110.06 334.613,1108.81 332.879,1107.13C331.145,1105.45 329.772,1103.36 328.762,1100.86C327.751,1098.36 327.246,1095.43 327.246,1092.07C327.246,1089.04 327.717,1086.3 328.658,1083.86C329.6,1081.41 330.921,1079.33 332.62,1077.61C334.32,1075.88 336.353,1074.56 338.718,1073.64C341.084,1072.72 343.702,1072.26 346.573,1072.26C349.444,1072.26 352.063,1072.76 354.428,1073.75C356.794,1074.73 358.821,1076.12 360.509,1077.9C362.197,1079.68 363.507,1081.8 364.437,1084.27C365.367,1086.74 365.832,1089.44 365.832,1092.38C365.832,1095.42 365.396,1098.15 364.523,1100.58C363.65,1103.02 362.387,1105.09 360.733,1106.8C359.079,1108.51 357.058,1109.83 354.67,1110.75C352.281,1111.67 349.582,1112.12 346.573,1112.12ZM345.781,1097.9C345.942,1098.06 346.183,1098.14 346.505,1098.14C346.941,1098.14 347.234,1098.01 347.383,1097.74C347.532,1097.48 347.607,1097.05 347.607,1096.45L347.607,1091.52C347.607,1090.49 347.59,1089.62 347.555,1088.9C347.521,1088.19 347.446,1087.61 347.331,1087.15C347.217,1086.69 347.073,1086.39 346.901,1086.25C346.728,1086.11 346.528,1086.05 346.298,1086.05C346.091,1086.05 345.925,1086.08 345.798,1086.15C345.672,1086.22 345.563,1086.3 345.471,1086.39C345.494,1086.76 345.528,1087.1 345.574,1087.42C345.62,1087.75 345.655,1088.11 345.678,1088.51C345.701,1088.91 345.724,1089.38 345.747,1089.92C345.77,1090.46 345.781,1091.11 345.781,1091.87L345.781,1097.9Z" style="fill:rgb(65,88,217);fill-rule:nonzero;"/>
            </g>
        </g>
        <g transform="matrix(1,0,0,1,43.2489,-20.5741)">
            <g transform="matrix(0.957239,0,0,0.862181,22.1,123.919)">
                <ellipse cx="733.916" cy="862.195" rx="27.871" ry="29.26" style="fill:rgb(65,88,217);"/>
            </g>
        </g>
    </g>
</svg>
